<?xml version="1.0" encoding="utf-8"?>
<!-- Generator: Adobe Illustrator 24.1.1, SVG Export Plug-In . SVG Version: 6.00 Build 0)  -->
<svg version="1.1" id="Layer_1" xmlns="http://www.w3.org/2000/svg" xmlns:xlink="http://www.w3.org/1999/xlink" x="0px" y="0px"
	 viewBox="0 200 841.89 180" style="enable-background:new 0 0 841.89 595.28;" xml:space="preserve">
<style type="text/css">
	.st0{fill:#1B4686;}
	.st1{fill:url(#SVGID_1_);}
	.st2{fill:url(#SVGID_2_);}
	.st3{fill:url(#SVGID_3_);}
	.st4{fill:#FFFFFF;}
</style>
<g>
	<g>
		<path class="st0" d="M223.51,274.6h-27.76v13.15h22.94v8.95h-22.94v22.24h-10.1v-53.3h37.86V274.6z"/>
		<path class="st0" d="M255.65,318.94l-3.12-9.68h-20.54l-3.05,9.68h-10.86l18.74-53.3h10.96l18.74,53.3H255.65z M242.01,277.86
			l-7.18,22.45h14.85l-7.11-22.45H242.01z"/>
		<path class="st0" d="M269.36,318.94v-53.3h10.1v53.3H269.36z"/>
		<path class="st0" d="M322.15,309.99v8.95h-36.68v-53.3h10.1v44.34H322.15z"/>
		<path class="st0" d="M361.44,270.4l-5.48,7.67c-3.7-3.03-7.95-4.55-12.73-4.55c-2.45,0-4.42,0.58-5.92,1.75
			c-1.49,1.17-2.26,2.7-2.31,4.6c-0.05,1.46,0.33,2.66,1.13,3.61c0.8,0.95,1.86,1.64,3.19,2.06c1.33,0.43,2.85,0.84,4.55,1.25
			c1.7,0.41,3.45,0.76,5.26,1.06c1.8,0.3,3.56,0.82,5.26,1.56c1.7,0.74,3.21,1.63,4.55,2.67c1.33,1.04,2.41,2.53,3.24,4.48
			c0.83,1.94,1.25,4.27,1.25,6.97c0,4.97-1.93,8.99-5.79,12.04c-3.86,3.05-8.66,4.58-14.4,4.58c-7.68,0-14.24-2.3-19.67-6.9
			l5.55-7.81c3.98,3.75,8.69,5.62,14.12,5.62c2.89,0,5.23-0.69,7.01-2.06c1.78-1.38,2.67-3.2,2.67-5.46c0-1.8-0.52-3.24-1.56-4.3
			c-1.04-1.06-2.41-1.82-4.09-2.27c-1.69-0.45-3.54-0.83-5.55-1.15c-2.01-0.31-4.02-0.74-6.04-1.28c-2.01-0.54-3.86-1.3-5.53-2.27
			c-1.68-0.97-3.04-2.51-4.08-4.61c-1.04-2.1-1.56-4.7-1.56-7.77c0-4.56,1.81-8.27,5.43-11.14c3.62-2.87,8.06-4.3,13.31-4.3
			C350.25,264.43,356.33,266.42,361.44,270.4z"/>
		<path class="st0" d="M397.46,307.3c2.46,2.51,5.42,3.76,8.88,3.76c3.46,0,6.45-1.26,8.97-3.78l6.87,6.84
			c-4.51,4.02-9.78,6.04-15.82,6.04c-6.2,0-11.6-2.11-16.2-6.33c-4.6-4.22-6.9-9.39-6.9-15.49c0-6.11,2.3-11.26,6.89-15.46
			c4.59-4.2,10-6.3,16.22-6.3c6.06,0,11.33,2.01,15.82,6.04l-6.87,6.84c-2.52-2.52-5.51-3.78-8.97-3.76
			c-3.46,0.01-6.42,1.26-8.88,3.75c-2.46,2.49-3.7,5.46-3.7,8.92C393.76,301.81,395,304.79,397.46,307.3z"/>
		<path class="st0" d="M470.56,298.33c0,6.15-2.28,11.33-6.85,15.53c-4.57,4.2-9.98,6.3-16.22,6.3c-6.2,0-11.6-2.1-16.2-6.3
			c-4.6-4.2-6.9-9.37-6.9-15.53c0-6.11,2.3-11.26,6.89-15.46c4.59-4.2,9.99-6.3,16.2-6.3s11.61,2.1,16.2,6.3
			C468.26,287.08,470.56,292.23,470.56,298.33z M460.05,298.33c0-3.47-1.22-6.44-3.66-8.92c-2.44-2.47-5.41-3.71-8.9-3.71
			c-3.47,0-6.44,1.24-8.9,3.73c-2.46,2.49-3.7,5.45-3.7,8.9c0,3.52,1.23,6.52,3.7,9c2.46,2.49,5.43,3.73,8.9,3.73
			c3.52,0,6.49-1.24,8.92-3.73C458.83,304.85,460.05,301.85,460.05,298.33z"/>
		<path class="st0" d="M485.28,318.94h-10.1v-41.15h10.1v6.04h0.14c2.61-4.83,6-7.25,10.17-7.25c2.8,0,5.14,0.73,7.03,2.2
			c1.88,1.47,3.3,3.35,4.25,5.64c0.9-2.04,2.43-3.85,4.6-5.45c2.16-1.6,4.56-2.39,7.2-2.39c4.79,0,8.57,1.49,11.35,4.48
			c2.78,2.98,4.16,7,4.16,12.04v25.85h-10.1v-26.02c0-2.04-0.69-3.75-2.06-5.14c-1.38-1.39-3.08-2.08-5.12-2.08
			c-1.99,0-3.68,0.69-5.08,2.08c-1.4,1.39-2.1,3.1-2.1,5.14v26.02h-10.1v-26.02c0-2.04-0.68-3.75-2.05-5.14
			c-1.37-1.39-3.07-2.08-5.1-2.08c-1.99,0-3.68,0.69-5.08,2.08c-1.4,1.39-2.1,3.1-2.1,5.14V318.94z"/>
		<path class="st0" d="M550.28,277.79v6.63h0.14c1.32-2.17,3.14-4.02,5.46-5.55c2.32-1.53,5.07-2.29,8.24-2.29
			c6.06,0,11.21,2.09,15.46,6.26c4.24,4.18,6.37,9.36,6.37,15.56c0,6.15-2.12,11.32-6.37,15.49c-4.25,4.18-9.4,6.26-15.46,6.26
			c-5.6,0-10.17-2.39-13.71-7.18h-0.14v18.11h-10.1v-53.3H550.28z M550.28,298.4c0,3.47,1.22,6.45,3.66,8.93
			c2.44,2.49,5.41,3.73,8.9,3.73c3.47,0,6.44-1.24,8.9-3.73c2.46-2.49,3.7-5.46,3.7-8.93c0-3.52-1.23-6.51-3.7-8.99
			c-2.46-2.47-5.43-3.71-8.9-3.71c-3.52,0-6.49,1.24-8.92,3.71C551.5,291.89,550.28,294.89,550.28,298.4z"/>
		<path class="st0" d="M635.3,298.33c0,6.15-2.28,11.33-6.85,15.53c-4.57,4.2-9.98,6.3-16.22,6.3c-6.2,0-11.6-2.1-16.2-6.3
			c-4.6-4.2-6.9-9.37-6.9-15.53c0-6.11,2.3-11.26,6.89-15.46c4.59-4.2,9.99-6.3,16.2-6.3s11.61,2.1,16.2,6.3
			C633.01,287.08,635.3,292.23,635.3,298.33z M624.79,298.33c0-3.47-1.22-6.44-3.66-8.92c-2.44-2.47-5.41-3.71-8.9-3.71
			c-3.47,0-6.44,1.24-8.9,3.73c-2.46,2.49-3.7,5.45-3.7,8.9c0,3.52,1.23,6.52,3.7,9c2.46,2.49,5.43,3.73,8.9,3.73
			c3.52,0,6.49-1.24,8.92-3.73C623.58,304.85,624.79,301.85,624.79,298.33z"/>
		<path class="st0" d="M650.03,318.94h-10.1v-41.15h10.1v6.31h0.14c2.57-5.02,6.55-7.53,11.94-7.53c4.74,0,8.59,1.63,11.55,4.88
			c2.96,3.25,4.44,7.45,4.44,12.61v24.88H668V294.8c0-2.52-0.88-4.67-2.64-6.44c-1.76-1.77-3.86-2.65-6.32-2.65
			c-2.52,0-4.66,0.88-6.4,2.65c-1.75,1.77-2.62,3.92-2.62,6.44V318.94z"/>
		<path class="st0" d="M727.24,298.33c0,1.37-0.19,2.88-0.56,4.55h-33.14c0.72,2.45,2.17,4.48,4.37,6.07c2.2,1.6,4.6,2.39,7.22,2.39
			c2.31,0,4.54-0.56,6.68-1.67c2.14-1.11,3.73-2.54,4.77-4.3l6.87,6.04c-2.08,2.71-4.73,4.84-7.95,6.4
			c-3.22,1.56-6.67,2.34-10.37,2.34c-6.25,0-11.55-2.1-15.91-6.3c-4.36-4.2-6.54-9.37-6.54-15.53c0-6.15,2.18-11.32,6.54-15.49
			c4.36-4.18,9.66-6.26,15.91-6.26c6.11,0,11.32,2.11,15.63,6.33C725.08,287.13,727.24,292.27,727.24,298.33z M693.62,294.34h22.83
			c-0.62-2.66-1.98-4.84-4.06-6.54c-2.08-1.7-4.5-2.55-7.25-2.55c-2.71,0-5.15,0.86-7.32,2.58
			C695.64,289.56,694.24,291.73,693.62,294.34z"/>
		<path class="st0" d="M741.93,318.94h-10.1v-41.15h10.1v6.31h0.14c2.57-5.02,6.55-7.53,11.94-7.53c4.74,0,8.59,1.63,11.55,4.88
			c2.96,3.25,4.44,7.45,4.44,12.61v24.88h-10.1V294.8c0-2.52-0.88-4.67-2.64-6.44c-1.76-1.77-3.86-2.65-6.31-2.65
			c-2.52,0-4.66,0.88-6.4,2.65c-1.75,1.77-2.62,3.92-2.62,6.44V318.94z"/>
		<path class="st0" d="M773.51,286.05v-8.26h3.78v-9.3h10.1v9.3h7.01v8.26h-7.01v22.03c0,0.86,0.34,1.59,1.02,2.2
			c0.68,0.61,1.47,0.92,2.38,0.92c1.18,0,2.06-0.2,2.64-0.59l1.98,7.98c-2.04,1.04-4.52,1.56-7.46,1.56c-3.17,0-5.74-1.01-7.7-3.02
			c-1.97-2.01-2.95-4.64-2.95-7.88v-23.21H773.51z"/>
		<path class="st0" d="M814.29,311.21c2.22,0.14,4.02-0.17,5.4-0.94c1.38-0.76,2.06-1.78,2.06-3.05c0-1.18-0.44-2.13-1.32-2.85
			c-0.88-0.72-2.03-1.21-3.45-1.49s-2.98-0.53-4.68-0.75c-1.7-0.22-3.41-0.55-5.12-0.99c-1.71-0.44-3.28-1.06-4.7-1.87
			c-1.42-0.81-2.57-2.07-3.45-3.78c-0.88-1.71-1.32-3.82-1.32-6.31c0-3.93,1.51-7.03,4.53-9.28c3.02-2.26,7.04-3.38,12.06-3.38
			c6.2,0,11.67,1.62,16.41,4.86l-4.41,7.6c-3.03-2.31-7.03-3.48-12.01-3.5c-4.21,0-6.33,1.24-6.35,3.71c0,1.18,0.45,2.09,1.35,2.72
			c0.9,0.64,2.05,1.09,3.45,1.35c1.4,0.27,2.97,0.49,4.7,0.68c1.73,0.19,3.46,0.52,5.19,0.99c1.72,0.47,3.28,1.13,4.68,1.96
			c1.4,0.83,2.55,2.12,3.45,3.87c0.9,1.75,1.35,3.9,1.35,6.47c0,4.07-1.71,7.25-5.12,9.52c-3.41,2.28-7.65,3.42-12.72,3.42
			c-6.69,0-12.49-1.61-17.42-4.82l4.89-8.05C804.91,309.62,809.09,310.93,814.29,311.21z"/>
	</g>
	<g>
		<path class="st0" d="M11.82,359.19c-0.5,1.49,0.31,3.1,1.79,3.6c0.3,0.1,0.6,0.15,0.9,0.15c1.19,0,2.3-0.75,2.7-1.94l11.19-33.47
			c-1.78-0.68-3.52-1.45-5.25-2.23L11.82,359.19z"/>
	</g>
	<g>
		<path class="st0" d="M131.43,305.7l-9.68,28.95c-0.5,1.49,0.31,3.1,1.79,3.6c0.3,0.1,0.6,0.15,0.9,0.15c1.19,0,2.3-0.75,2.7-1.94
			l10.53-31.51C135.6,305.18,133.51,305.4,131.43,305.7z"/>
	</g>
	<g>
		<path class="st0" d="M151.46,350.89c-1.19,0-2.3-0.75-2.7-1.94l-14.6-43.67c-0.5-1.49,0.31-3.1,1.79-3.6
			c1.49-0.5,3.1,0.31,3.6,1.79l14.6,43.67c0.5,1.49-0.31,3.1-1.79,3.6C152.06,350.85,151.76,350.89,151.46,350.89z"/>
	</g>
	<g>
		<path class="st0" d="M54.15,376.47l-17.08-51.08c-1.85,0.6-3.81,0.61-5.8,0.57l17.49,52.31c0.4,1.19,1.51,1.94,2.7,1.94
			c0.3,0,0.6-0.05,0.9-0.15C53.85,379.57,54.65,377.96,54.15,376.47z"/>
	</g>
	<linearGradient id="SVGID_1_" gradientUnits="userSpaceOnUse" x1="22.8556" y1="276.8225" x2="151.3618" y2="276.8225">
		<stop  offset="0" style="stop-color:#97D9E9"/>
		<stop  offset="1" style="stop-color:#2195C7"/>
	</linearGradient>
	<polygon class="st1" points="24.05,334.85 151.36,316.77 149.91,233.63 22.86,218.79 	"/>
	<linearGradient id="SVGID_2_" gradientUnits="userSpaceOnUse" x1="20.2849" y1="276.8086" x2="157.4146" y2="276.8086">
		<stop  offset="0" style="stop-color:#2195C7"/>
		<stop  offset="1" style="stop-color:#97D9E9"/>
	</linearGradient>
	<path class="st2" d="M25.29,327.17c0,1.58,1.41,2.8,2.98,2.56l29.09-4.35c0,0.01,0.01,0.02,0.01,0.03l35.44-5.32l54.21-8.09
		c1.49-0.19,2.61-1.47,2.58-2.97l0-68.89c-0.02-1.5-1.15-2.74-2.64-2.9l-12.2-1.61l-17.61-2.3l-88.95-11.51
		c-1.55-0.2-2.92,1.01-2.92,2.57l0,1.99c-0.96,1.13-1.69,0.02-1.69,0.85l-1.75-6.17c0,0,0.75-3.2,5.32-4.79l3.08-1.2
		c0.05,0-0.15,0.24-0.11,0.24c0.01,0,0.29-0.25,0.3-0.25l91.6,13.39L139.4,231l17.43,2.54c0.44,0.06,0.52,0.7,0.09,0.81
		c-1.96,0.48-3.31,1.55-3.39,3.07c-0.01,0.09-0.01,0.19-0.01,0.28l0.01,74.18c0,0.18,0.02,0.36,0.04,0.54
		c0.22,1.74,1.76,2.96,3.56,3.56c0.42,0.14,0.38,0.75-0.06,0.81L30.44,338.54l-0.14,0.01l-3.18-1.48c-5.47-1.94-5.25-6.55-5.25-6.55
		l2.09-0.26l-3.67-4.71L25.29,327.17L25.29,327.17z"/>
	<path class="st0" d="M30.63,337.34c-2.67-1.37-4.94-3.5-5.28-6.05c-0.05-0.37-0.07-0.74-0.07-1.12v-52.46v-9.48v-44.8
		c0-0.38,0.03-0.75,0.07-1.12c0.34-2.55,2.6-4.68,5.28-6.05c0.59-0.3,0.37-1.17-0.25-1.2c0,0-0.06-0.01-0.09,0l-0.06,0.01
		l-3.34,0.61l-16.54,3.03c-0.68,0.04-0.83,0.95-0.21,1.23c2.07,0.92,3.81,2.44,3.99,4.37c0.02,0.19,0.03,0.38,0.03,0.57v43.36v9.48
		v51.02c0,0.19-0.01,0.39-0.03,0.57c-0.18,1.92-1.92,3.44-3.99,4.36c-0.62,0.28-0.46,1.19,0.21,1.23l16.33,2.99l3.61,0.66
		c0.11,0.01,0.21-0.01,0.29-0.05C31.05,338.31,31.15,337.6,30.63,337.34z"/>
	<g>
		<path class="st0" d="M150.29,220.3l-38.61,38.43c-0.12,0.12-0.25,0.24-0.39,0.34c-0.23,0.18-0.47,0.33-0.72,0.46l-11.59,5.81
			l-3.81,0.47c-0.69,0.34-1.79,1.68-1.45,0.99l0.1-0.37l1.35-5.07l5.76-11.48c0.21-0.41,0.48-0.79,0.8-1.11l31.72-31.52l0.58-0.58
			c0.87-0.87,2.13-1.25,3.34-1.01l6.22,1.25l6.06,1.22C150.65,218.33,151.02,219.57,150.29,220.3z"/>
	</g>
	<linearGradient id="SVGID_3_" gradientUnits="userSpaceOnUse" x1="93.6522" y1="241.9513" x2="150.6714" y2="241.9513">
		<stop  offset="0" style="stop-color:#094E82"/>
		<stop  offset="1" style="stop-color:#40C0DF"/>
	</linearGradient>
	<path class="st3" d="M150.29,220.3l-38.61,38.43c-0.12,0.12-0.25,0.24-0.39,0.34c-0.23,0.18-0.47,0.33-0.72,0.46l-11.59,5.81
		l-3.81,0.47c-0.69,0.34-1.79,1.68-1.45,0.99l0.1-0.37l49.76-49.52l6.06,1.22C150.65,218.33,151.02,219.57,150.29,220.3z"/>
	<path class="st4" d="M87.18,262.49c0.27,0.87-0.93,1.38-1.4,0.61c-0.09-0.14-0.18-0.29-0.27-0.43c-0.55-0.84-1.12-1.65-1.78-2.36
		c-0.66-0.72-1.35-1.39-2.09-1.98c-0.74-0.6-1.54-1.1-2.36-1.54c-0.82-0.44-1.67-0.81-2.54-1.11c-1.76-0.57-3.57-0.9-5.41-0.95
		c-3.67-0.12-7.35,0.71-10.64,2.21c-3.29,1.5-6.22,3.67-8.34,6.29c-0.54,0.65-1.01,1.34-1.44,2.04c-0.43,0.7-0.81,1.42-1.12,2.17
		c-0.31,0.74-0.58,1.49-0.78,2.26c-0.06,0.19-0.09,0.39-0.14,0.58c-0.05,0.19-0.09,0.39-0.12,0.58l-0.05,0.29l-0.03,0.15l-0.02,0.17
		l-0.1,0.66c-0.24,1.76-0.32,3.52-0.24,5.25c0.09,1.73,0.32,3.45,0.74,5.11c0.81,3.32,2.29,6.43,4.31,9.07
		c2.02,2.63,4.59,4.77,7.42,6.13c2.83,1.36,5.9,1.89,8.9,1.53c3-0.35,5.95-1.62,8.65-3.61l0.5-0.38c0.17-0.13,0.33-0.27,0.49-0.4
		c0.33-0.26,0.65-0.55,0.97-0.84c0.32-0.29,0.63-0.59,0.95-0.89l1.19-1.15c1.6-1.53,3.29-2.99,5.05-4.37l0.66-0.52l0.68-0.5
		c0.45-0.34,0.91-0.66,1.38-0.99c0.46-0.33,0.94-0.64,1.41-0.95c0.48-0.31,0.95-0.62,1.45-0.91c0.98-0.59,1.98-1.15,3.01-1.69
		c1.04-0.52,2.09-1.02,3.18-1.46c1.09-0.45,2.2-0.85,3.36-1.18c1.15-0.33,2.33-0.63,3.54-0.82c1.21-0.2,2.45-0.32,3.7-0.35
		c1.25-0.03,2.53,0.06,3.79,0.25c2.53,0.39,5.03,1.29,7.19,2.67c2.17,1.36,3.95,3.17,5.34,5.11c0.7,0.97,1.31,1.99,1.82,3.03
		c0.51,1.04,0.97,2.09,1.34,3.15c0.37,1.06,0.68,2.14,0.93,3.21c0.26,1.07,0.46,2.15,0.61,3.22c0.07,0.54,0.15,1.07,0.19,1.61
		l0.08,0.8l0.06,0.8c0.07,1.07,0.09,2.14,0.09,3.2c0,0.4-0.01,0.8-0.02,1.2c-0.02,0.89-1.3,1.03-1.51,0.16
		c-0.1-0.38-0.19-0.75-0.3-1.12c-0.27-0.99-0.55-1.98-0.87-2.94l-0.23-0.72l-0.25-0.72c-0.16-0.48-0.35-0.95-0.53-1.41
		c-0.73-1.87-1.57-3.66-2.56-5.29c-0.97-1.64-2.12-3.13-3.38-4.36c-0.63-0.62-1.3-1.16-1.99-1.63c-0.7-0.47-1.42-0.85-2.16-1.17
		c-1.48-0.62-3.03-0.92-4.62-0.94c-3.19-0.03-6.53,1.07-9.7,2.76c-1.59,0.85-3.14,1.84-4.64,2.94c-1.51,1.09-2.96,2.3-4.38,3.57
		c-1.42,1.27-2.78,2.62-4.12,4.02l-0.99,1.06c-0.41,0.43-0.82,0.87-1.26,1.29c-0.44,0.42-0.87,0.84-1.34,1.24
		c-0.23,0.2-0.46,0.41-0.69,0.6l-0.72,0.58c-0.24,0.2-0.48,0.38-0.74,0.57l-0.75,0.55c-0.52,0.35-1.03,0.71-1.58,1.03
		c-1.07,0.67-2.2,1.26-3.37,1.79c-2.34,1.06-4.88,1.8-7.49,2.15c-1.3,0.19-2.63,0.25-3.94,0.22c-1.32-0.03-2.64-0.14-3.93-0.37
		c-1.29-0.22-2.57-0.53-3.81-0.94c-1.24-0.41-2.44-0.9-3.6-1.46c-4.64-2.26-8.52-5.7-11.42-9.73c-1.46-2.01-2.66-4.19-3.63-6.45
		c-0.96-2.26-1.68-4.62-2.13-7.01c-0.12-0.6-0.2-1.2-0.3-1.8l-0.11-0.9c-0.04-0.3-0.07-0.6-0.09-0.9l-0.07-0.91l-0.04-0.91
		c-0.03-0.6-0.02-1.21-0.02-1.81c0.03-0.6,0.03-1.2,0.08-1.8l0.07-0.9l0.1-0.89c0.06-0.6,0.16-1.18,0.25-1.77
		c0.11-0.59,0.21-1.17,0.34-1.75l0.2-0.87l0.05-0.22l0.06-0.23l0.12-0.46c0.08-0.31,0.17-0.62,0.27-0.92c0.1-0.3,0.19-0.61,0.3-0.91
		c0.43-1.21,0.97-2.37,1.57-3.48c0.16-0.28,0.3-0.56,0.47-0.83l0.5-0.81c0.35-0.52,0.7-1.04,1.09-1.54c0.76-0.99,1.57-1.94,2.45-2.8
		c1.75-1.73,3.7-3.2,5.77-4.39c2.06-1.21,4.26-2.13,6.5-2.81c1.13-0.33,2.26-0.6,3.41-0.81c1.15-0.21,2.31-0.33,3.47-0.4
		c1.16-0.07,2.33-0.07,3.49,0.01c1.16,0.07,2.32,0.23,3.45,0.47c2.27,0.48,4.5,1.26,6.51,2.41c2.01,1.15,3.83,2.64,5.26,4.39
		c1.44,1.75,2.51,3.74,3.21,5.8C87.06,262.14,87.12,262.31,87.18,262.49z"/>
	<path class="st4" d="M98.98,265.34l-5.61,2.81c-0.69,0.34-1.42-0.39-1.07-1.07l2.86-5.71C96.86,262.19,98.21,263.61,98.98,265.34z"
		/>
</g>
</svg>
